G04 Gerber X2 — WellD v1.0 — welld-F_SilkS.gbr*
%TF.GenerationSoftware,WellD,generate_gerbers.py,1.0*%
%TF.CreationDate,2026-05-16T00:00:00+00:00*%
%TF.ProjectId,welld,00000000-0000-0000-0000-000000000000,rev1.0*%
%TF.SameCoordinates,Original*%
%TF.FileFunction,Legend,Top*%
%TF.FilePolarity,Positive*%
%FSLAX46Y46*%
%MOMM*%
%LPD*%
G04 --- Apertures ---*
%ADD10C,0.12000*%
%ADD11C,0.10000*%
G04 --- Data ---*
G01*
G54D10*
X31900000Y53500000D02*
X48100000Y53500000D01*
G54D11*
X56000000Y32000000D03*
X10000000Y39000000D03*
X68000000Y19000000D03*
X68000000Y12000000D03*
X10000000Y46000000D03*
X31000000Y24000000D03*
X60000000Y8000000D03*
X73000000Y18000000D03*
X42000000Y36000000D03*
X68000000Y40000000D03*
X15000000Y12000000D03*
X12000000Y45000000D03*
X14000000Y45000000D03*
X50000000Y49000000D03*
X65000000Y40000000D03*
X56000000Y5000000D03*
X62000000Y18000000D03*
X6000000Y42000000D03*
X74000000Y38000000D03*
X2000000Y45000000D03*
X40000000Y51000000D03*
X12000000Y0D03*
X23000000Y0D03*
X34000000Y0D03*
X45000000Y0D03*
X70000000Y44000000D03*
X70000000Y30000000D03*
X2000000Y18000000D03*
X64000000Y0D03*
X14000000Y41000000D03*
X56000000Y34000000D03*
X74000000Y10000000D03*
X5000000Y33000000D03*
X5000000Y26000000D03*
X8000000Y36000000D03*
X17000000Y8000000D03*
X20000000Y10000000D03*
X26000000Y8000000D03*
X29000000Y10000000D03*
X36000000Y8000000D03*
X53000000Y28000000D03*
X53000000Y30000000D03*
X63000000Y44000000D03*
X65000000Y44000000D03*
X26000000Y34000000D03*
X26000000Y32000000D03*
X26000000Y30000000D03*
X51000000Y47000000D03*
X4000000Y48000000D03*
X6000000Y48000000D03*
X11000000Y43000000D03*
X13000000Y43000000D03*
X57000000Y10000000D03*
X63000000Y6000000D03*
X63000000Y8000000D03*
X62000000Y12000000D03*
X76000000Y16000000D03*
X76000000Y18000000D03*
X14000000Y45000000D03*
X57000000Y36000000D03*
X88000000Y16000000D03*
X50000000Y36000000D03*
X8000000Y39000000D03*
X12000000Y39000000D03*
X20000000Y12000000D03*
X22000000Y12000000D03*
X29000000Y12000000D03*
X31000000Y12000000D03*
X36000000Y10000000D03*
X55000000Y30000000D03*
X54000000Y33000000D03*
X56000000Y33000000D03*
X54000000Y35000000D03*
X56000000Y35000000D03*
X27000000Y35000000D03*
X42000000Y24000000D03*
X44000000Y22000000D03*
X46000000Y24000000D03*
X48000000Y22000000D03*
X44000000Y24000000D03*
X6000000Y44000000D03*
X58000000Y6000000D03*
X60000000Y10000000D03*
X76000000Y12000000D03*
X77000000Y6000000D03*
X26000000Y6000000D03*
X79000000Y6000000D03*
X3500000Y1500000D03*
X76500000Y1500000D03*
X3500000Y49500000D03*
X76500000Y49500000D03*
M02*
