; Excellon drill file — WellD — PTH
; Generated 2026-05-16
M48
METRIC,LZ
FMAT,2
T01C1.050
T02C1.020
T03C0.800
%
G90
G05
T01
X8.5000Y2.0000
X12.0000Y2.0000
X15.5000Y2.0000
X19.5000Y2.0000
X23.0000Y2.0000
X26.5000Y2.0000
X30.5000Y2.0000
X34.0000Y2.0000
X37.5000Y2.0000
X41.5000Y2.0000
X45.0000Y2.0000
X48.5000Y2.0000
T02
X70.0000Y46.0000
X70.0000Y48.5400
X70.0000Y51.0800
X70.0000Y53.6200
X70.0000Y32.0000
X70.0000Y34.5400
X70.0000Y37.0800
X70.0000Y39.6200
X70.0000Y42.1600
X70.0000Y44.7000
X70.0000Y47.2400
X70.0000Y49.7800
T03
X2.0000Y20.0000
X2.0000Y21.2700
X2.0000Y22.5400
X2.0000Y23.8100
X2.0000Y25.0800
X2.0000Y26.3500
T01
X62.2500Y2.0000
X65.7500Y2.0000
T00
M30
