G04 Gerber X2 — WellD v1.0 — welld-F_Paste.gbr*
%TF.GenerationSoftware,WellD,generate_gerbers.py,1.0*%
%TF.CreationDate,2026-05-16T00:00:00+00:00*%
%TF.ProjectId,welld,00000000-0000-0000-0000-000000000000,rev1.0*%
%TF.SameCoordinates,Original*%
%TF.FileFunction,SolderPaste,Top*%
%TF.FilePolarity,Positive*%
%FSLAX46Y46*%
%MOMM*%
%LPD*%
G04 --- Apertures ---*
%ADD10R,0.70000X0.50000*%
%ADD11R,1.55000X0.60000*%
%ADD12R,1.00000X0.65000*%
%ADD13R,0.65000X1.50000*%
%ADD14R,1.50000X0.65000*%
%ADD15R,0.75000X0.55000*%
%ADD16R,1.60000X1.10000*%
%ADD17R,0.90000X0.90000*%
%ADD18R,2.00000X2.20000*%
%ADD19R,1.60000X1.80000*%
%ADD20R,1.00000X2.50000*%
%ADD21R,0.70000X0.40000*%
%ADD22C,0.80000*%
%ADD23R,2.50000X2.00000*%
%ADD24R,1.60000X1.00000*%
%ADD25R,1.00000X0.90000*%
%ADD26R,1.80000X1.45000*%
G04 --- Data ---*
G01*
G54D10*
X55100000Y34650000D03*
X55100000Y34000000D03*
X55100000Y33350000D03*
X56900000Y33675000D03*
X56900000Y34325000D03*
G54D11*
X7300000Y42905000D03*
X7300000Y41635000D03*
X7300000Y40365000D03*
X7300000Y39095000D03*
X12700000Y39095000D03*
X12700000Y40365000D03*
X12700000Y41635000D03*
X12700000Y42905000D03*
G54D12*
X66850000Y21950000D03*
X66850000Y21000000D03*
X66850000Y20050000D03*
X69150000Y20050000D03*
X69150000Y21000000D03*
X69150000Y21950000D03*
X66850000Y14950000D03*
X66850000Y14000000D03*
X66850000Y13050000D03*
X69150000Y13050000D03*
X69150000Y14000000D03*
X69150000Y14950000D03*
X8850000Y48950000D03*
X8850000Y48000000D03*
X8850000Y47050000D03*
X11150000Y47050000D03*
X11150000Y48000000D03*
X11150000Y48950000D03*
G54D13*
X25150000Y34300000D03*
X26050000Y34300000D03*
X26950000Y34300000D03*
X27850000Y34300000D03*
X28750000Y34300000D03*
X29650000Y34300000D03*
X30550000Y34300000D03*
X31450000Y34300000D03*
X32350000Y34300000D03*
X33250000Y34300000D03*
X34150000Y34300000D03*
X35050000Y34300000D03*
X35950000Y34300000D03*
X36850000Y34300000D03*
G54D14*
X24400000Y23300000D03*
X24400000Y24200000D03*
X24400000Y25100000D03*
X24400000Y26000000D03*
X24400000Y26900000D03*
X24400000Y27800000D03*
X24400000Y28700000D03*
X37600000Y23300000D03*
X37600000Y24200000D03*
X37600000Y25100000D03*
X37600000Y26000000D03*
X37600000Y26900000D03*
X37600000Y27800000D03*
X37600000Y28700000D03*
G54D11*
X57300000Y11905000D03*
X57300000Y10635000D03*
X57300000Y9365000D03*
X57300000Y8095000D03*
X62700000Y8095000D03*
X62700000Y9365000D03*
X62700000Y10635000D03*
X62700000Y11905000D03*
G54D12*
X71850000Y20950000D03*
X71850000Y20000000D03*
X71850000Y19050000D03*
X74150000Y19050000D03*
X74150000Y20950000D03*
G54D11*
X39300000Y39905000D03*
X39300000Y38635000D03*
X39300000Y37365000D03*
X39300000Y36095000D03*
X44700000Y36095000D03*
X44700000Y37365000D03*
X44700000Y38635000D03*
X44700000Y39905000D03*
G54D12*
X66850000Y42950000D03*
X66850000Y42000000D03*
X66850000Y41050000D03*
X69150000Y41050000D03*
X69150000Y42000000D03*
X69150000Y42950000D03*
G54D15*
X14100000Y14650000D03*
X14100000Y14000000D03*
X14100000Y13350000D03*
X15900000Y13350000D03*
X15900000Y14000000D03*
X15900000Y14650000D03*
G54D16*
X11200000Y47000000D03*
X12800000Y47000000D03*
X13200000Y47000000D03*
X14800000Y47000000D03*
X49200000Y51000000D03*
X50800000Y51000000D03*
G54D17*
X64050000Y42900000D03*
X64050000Y41100000D03*
X65950000Y42000000D03*
G54D16*
X54350000Y7000000D03*
X57650000Y7000000D03*
G54D18*
X59900000Y20000000D03*
X64100000Y20000000D03*
G54D19*
X4250000Y44000000D03*
X7750000Y44000000D03*
G54D20*
X72750000Y42250000D03*
X75250000Y42250000D03*
G54D21*
X-1500000Y49100000D03*
X-500000Y49100000D03*
X500000Y49100000D03*
X1500000Y49100000D03*
X2500000Y49100000D03*
X3500000Y49100000D03*
X4500000Y49100000D03*
X5500000Y49100000D03*
X-1500000Y46700000D03*
X5500000Y46700000D03*
G54D22*
X40000000Y53000000D03*
G54D17*
X13050000Y43900000D03*
X13050000Y42100000D03*
X14950000Y43000000D03*
X55050000Y36900000D03*
X55050000Y35100000D03*
X56950000Y36000000D03*
G54D23*
X72200000Y12000000D03*
X75800000Y12000000D03*
G54D24*
X2500000Y33250000D03*
X7500000Y33250000D03*
X2500000Y36750000D03*
X7500000Y36750000D03*
X2500000Y26250000D03*
X7500000Y26250000D03*
X2500000Y29750000D03*
X7500000Y29750000D03*
G54D25*
X7125000Y38000000D03*
X8875000Y38000000D03*
G54D26*
X15550000Y10000000D03*
X18450000Y10000000D03*
G54D25*
X19125000Y12000000D03*
X20875000Y12000000D03*
G54D26*
X24550000Y10000000D03*
X27450000Y10000000D03*
G54D25*
X28125000Y12000000D03*
X29875000Y12000000D03*
X35125000Y10000000D03*
X36875000Y10000000D03*
X52125000Y30000000D03*
X53875000Y30000000D03*
X52125000Y32000000D03*
X53875000Y32000000D03*
X62125000Y46000000D03*
X63875000Y46000000D03*
X64125000Y46000000D03*
X65875000Y46000000D03*
X25125000Y36000000D03*
X26875000Y36000000D03*
X25125000Y34000000D03*
X26875000Y34000000D03*
X25125000Y32000000D03*
X26875000Y32000000D03*
X50125000Y49000000D03*
X51875000Y49000000D03*
X3125000Y50000000D03*
X4875000Y50000000D03*
X5125000Y50000000D03*
X6875000Y50000000D03*
X10125000Y45000000D03*
X11875000Y45000000D03*
X12125000Y45000000D03*
X13875000Y45000000D03*
X56125000Y12000000D03*
X57875000Y12000000D03*
X62125000Y8000000D03*
X63875000Y8000000D03*
X62125000Y10000000D03*
X63875000Y10000000D03*
X61125000Y14000000D03*
X62875000Y14000000D03*
X75125000Y18000000D03*
X76875000Y18000000D03*
X75125000Y20000000D03*
X76875000Y20000000D03*
X13125000Y47000000D03*
X14875000Y47000000D03*
X56125000Y38000000D03*
X57875000Y38000000D03*
X87125000Y18000000D03*
X88875000Y18000000D03*
X49125000Y38000000D03*
X50875000Y38000000D03*
G54D26*
X6550000Y41000000D03*
X9450000Y41000000D03*
X10550000Y41000000D03*
X13450000Y41000000D03*
G54D25*
X19125000Y14000000D03*
X20875000Y14000000D03*
G54D26*
X20550000Y14000000D03*
X23450000Y14000000D03*
G54D25*
X28125000Y14000000D03*
X29875000Y14000000D03*
G54D26*
X29550000Y14000000D03*
X32450000Y14000000D03*
G54D25*
X35125000Y12000000D03*
X36875000Y12000000D03*
X54125000Y32000000D03*
X55875000Y32000000D03*
X53125000Y35000000D03*
X54875000Y35000000D03*
X55125000Y35000000D03*
X56875000Y35000000D03*
X53125000Y37000000D03*
X54875000Y37000000D03*
X55125000Y37000000D03*
X56875000Y37000000D03*
X26125000Y37000000D03*
X27875000Y37000000D03*
X41125000Y26000000D03*
X42875000Y26000000D03*
X43125000Y24000000D03*
X44875000Y24000000D03*
X45125000Y26000000D03*
X46875000Y26000000D03*
X47125000Y24000000D03*
X48875000Y24000000D03*
G54D26*
X42550000Y26000000D03*
X45450000Y26000000D03*
X4550000Y46000000D03*
X7450000Y46000000D03*
X56550000Y8000000D03*
X59450000Y8000000D03*
X58550000Y12000000D03*
X61450000Y12000000D03*
X74550000Y14000000D03*
X77450000Y14000000D03*
G54D19*
X75250000Y8000000D03*
X78750000Y8000000D03*
G54D25*
X25125000Y8000000D03*
X26875000Y8000000D03*
G54D26*
X77550000Y8000000D03*
X80450000Y8000000D03*
M02*
